<?xml version="1.0" encoding="UTF-8"?>
<svg id="Ebene_2" data-name="Ebene 2" xmlns="http://www.w3.org/2000/svg" viewBox="0 0 524.66 92.26">
  <defs>
    <style>
      .cls-1 {
        fill: #0072c6;
      }

      .cls-2 {
        fill: #5cbbff;
      }
    </style>
  </defs>
  <g id="Ebene_3" data-name="Ebene 3">
    <g>
      <rect class="cls-2" x="261.61" y="23.5" width="46.7" height="23.29"/>
      <rect class="cls-1" x="261.61" y="46.7" width="46.7" height="23.35"/>
      <path d="m42.93,23.51v47.33c0,8.3-2.5,14.31-7.61,17.91-3.4,2.3-7.81,3.5-13.21,3.5s-10.01-1.4-13.61-4.1c-3.7-2.7-6.1-6.9-6.4-11.81h10.71c.5,4,3.5,7.3,9.61,7.3,6.8,0,10.01-4,10.01-11.41v-9.11c-2.6,5.3-7.1,8.11-13.31,8.11C7.61,71.24,0,61.54,0,46.73s7.61-24.42,19.11-24.42c6.2,0,10.71,2.7,13.31,8.1v-6.9h10.51Zm-10.31,23.21c0-9.51-4.1-15.01-11.11-15.01s-10.91,5.4-10.91,15.01,3.9,15.01,10.91,15.01,11.11-5.5,11.11-15.01"/>
      <path d="m73.63,53.73v-30.22h10.71v28.02c0,7.2,2.5,10.61,7.7,10.61,5.6,0,8.71-4.3,8.71-12.21v-26.42h10.61v46.53h-10.61v-6.7c-2.4,5.1-6.3,7.9-13.31,7.9-8.61,0-13.81-6.5-13.81-17.51"/>
      <path d="m158.68,50.23h-29.02c.3,7.4,3.8,11.91,10.61,11.91,4.7,0,7.5-2,8.61-5.7h9.61c-1.3,9.31-7.51,14.81-18.21,14.81-13.31,0-20.91-8.9-20.91-24.32s7.6-24.61,20.41-24.61,19.31,8.8,19.31,21.21c0,1.5-.1,4.5-.4,6.7m-9.91-8.01c0-7.8-3.3-11.61-9.11-11.61-6.1,0-9.91,4.2-10.01,11.61h19.11Z"/>
      <path d="m165.88,46.73c0-15.01,8-24.42,20.61-24.42s19.21,6.5,19.11,17.71h-10.61c-.4-5.7-3.1-8.5-8.5-8.5-6.3,0-10.01,5.6-10.01,15.21s3.4,15.21,10.21,15.21c5.1,0,7.81-2.6,8.41-7.9h10.61c-.9,11.11-7.71,17.21-19.21,17.21-13.01,0-20.61-9.21-20.61-24.51"/>
      <path d="m361.96,46.73c0-14.71,7.61-24.42,19.11-24.42,6.2,0,10.71,2.7,13.41,8.1v-6.9h10.51v46.53h-10.51v-7c-2.7,5.4-7.2,8.2-13.41,8.2-11.51,0-19.11-9.71-19.11-24.51m32.62,0c0-9.51-4.1-15.01-11.11-15.01s-10.91,5.4-10.91,15.01,3.9,15.11,10.91,15.11,11.11-5.5,11.11-15.11"/>
      <path d="m415.04,23.51h10.71v6.7c2.5-5.4,7-7.91,13.01-7.91,9.11,0,14.21,5.7,14.21,17.51v30.22h-10.61v-27.12c0-8-2.3-11.61-7.81-11.61-6.2,0-8.8,4.6-8.8,13.21v25.52h-10.71V23.51Z"/>
      <path d="m455.52,90.76v-9.51c1,.3,2.1.4,3.6.4,2.7,0,3.9-1.5,3.9-5V23.51h10.61v54.33c0,9.71-4.2,13.81-12.11,13.81-2.7,0-4.8-.5-6-.9"/>
      <path d="m481.63,46.73c0-14.71,7.61-24.42,19.11-24.42,6.2,0,10.71,2.7,13.41,8.1v-6.9h10.51v46.53h-10.51v-7c-2.7,5.4-7.2,8.2-13.41,8.2-11.51,0-19.11-9.71-19.11-24.51m32.62,0c0-9.51-4.1-15.01-11.11-15.01s-10.91,5.4-10.91,15.01,3.9,15.11,10.91,15.11,11.11-5.5,11.11-15.11"/>
      <rect x="463.03" y="2.28" width="10.61" height="10.61"/>
      <polygon points="52.97 3.53 52.97 70.04 63.58 70.04 63.58 0 52.97 3.53"/>
      <polygon points="251.02 23.51 238.71 23.51 224.2 44.73 224.2 0 224.18 0 213.69 3.49 213.69 70.04 224.2 70.04 224.2 47.23 238.21 70.04 250.82 70.04 235.01 45.33 251.02 23.51"/>
      <polygon points="360.24 23.51 347.93 23.51 333.42 44.73 333.42 0 333.39 0 322.91 3.49 322.91 70.04 333.42 70.04 333.42 47.23 347.43 70.04 360.04 70.04 344.23 45.33 360.24 23.51"/>
    </g>
  </g>
</svg>